<?xml version="1.0" standalone="no"?>
<!DOCTYPE svg PUBLIC "-//W3C//DTD SVG 20010904//EN"
 "http://www.w3.org/TR/2001/REC-SVG-20010904/DTD/svg10.dtd">
<svg version="1.0" xmlns="http://www.w3.org/2000/svg"
 width="512.000000pt" height="512.000000pt" viewBox="0 0 512.000000 512.000000"
 preserveAspectRatio="xMidYMid meet">

<g transform="translate(0.000000,512.000000) scale(0.100000,-0.100000)"
fill="#000000" stroke="none">
<path d="M2330 5110 c-890 -86 -1671 -622 -2060 -1415 -161 -327 -236 -606
-262 -973 -24 -335 30 -719 147 -1038 54 -148 184 -404 271 -534 242 -362 571
-660 945 -854 240 -125 465 -203 724 -251 831 -153 1665 102 2264 694 396 392
653 899 736 1451 34 226 29 552 -11 792 -23 132 -77 339 -119 454 -53 144
-183 403 -264 524 -203 305 -479 576 -777 765 -113 72 -360 193 -488 240 -135
50 -345 103 -501 126 -151 23 -462 32 -605 19z m-322 -1307 l217 217 120 -120
120 -120 -218 -218 -217 -217 220 -220 220 -220 -120 -120 -120 -120 -220 220
-220 220 -220 -220 -220 -220 -117 118 -118 117 220 220 220 220 -220 220
-220 220 120 120 120 120 217 -217 218 -218 218 218z m1486 187 c118 -30 209
-82 302 -175 166 -164 233 -376 190 -595 -69 -349 -393 -587 -735 -540 -230
31 -417 163 -516 362 -98 199 -99 397 -3 597 57 120 178 241 298 300 147 72
312 90 464 51z m-1531 -1566 c209 -54 396 -231 463 -437 144 -447 -200 -899
-665 -874 -442 23 -738 447 -605 867 107 338 462 533 807 444z m1149 -191
l218 -218 220 220 220 220 115 -115 c63 -63 115 -119 115 -125 0 -6 -97 -107
-215 -225 l-215 -215 217 -217 218 -218 -120 -120 -120 -120 -220 220 -220
220 -217 -217 -218 -218 -117 118 -118 117 218 218 217 217 -215 215 c-118
118 -215 219 -215 225 0 10 220 235 230 235 3 0 103 -98 222 -217z"/>
<path d="M3277 3669 c-115 -17 -217 -99 -258 -208 -17 -45 -20 -71 -17 -136 6
-98 34 -161 103 -224 70 -64 124 -86 220 -86 71 0 88 4 147 33 73 36 123 86
160 161 34 69 33 195 -3 271 -63 135 -205 210 -352 189z"/>
<path d="M1693 2096 c-201 -66 -292 -293 -191 -477 137 -252 509 -219 602 54
52 153 -24 333 -171 402 -68 33 -177 42 -240 21z"/>
</g>
</svg>
